<mxfile host="app.diagrams.net" agent="Mozilla/5.0 (X11; Linux x86_64) AppleWebKit/537.36 (KHTML, like Gecko) Chrome/128.0.0.0 Safari/537.36" version="24.8.6" pages="5">
  <diagram id="8xAqNz_L7fDK7PHTMSUr" name="ReadSearchData">
    <mxGraphModel dx="766" dy="416" grid="1" gridSize="10" guides="1" tooltips="1" connect="1" arrows="1" fold="1" page="1" pageScale="1" pageWidth="850" pageHeight="1100" math="0" shadow="0">
      <root>
        <mxCell id="0" />
        <mxCell id="1" parent="0" />
        <mxCell id="k0sRTmFZn3dnaTxquW7G-18" style="edgeStyle=orthogonalEdgeStyle;curved=1;rounded=0;orthogonalLoop=1;jettySize=auto;html=1;" edge="1" parent="1" source="eSHc3VcAs7KuDRajMVns-1" target="eJXzKw355hA63iurN4_m-2">
          <mxGeometry relative="1" as="geometry">
            <Array as="points">
              <mxPoint x="210" y="160" />
              <mxPoint x="210" y="160" />
            </Array>
          </mxGeometry>
        </mxCell>
        <mxCell id="k0sRTmFZn3dnaTxquW7G-19" value="Partial&lt;div&gt;Query&lt;/div&gt;" style="edgeLabel;html=1;align=center;verticalAlign=middle;resizable=0;points=[];" vertex="1" connectable="0" parent="k0sRTmFZn3dnaTxquW7G-18">
          <mxGeometry x="-0.0032" relative="1" as="geometry">
            <mxPoint y="-15" as="offset" />
          </mxGeometry>
        </mxCell>
        <mxCell id="eSHc3VcAs7KuDRajMVns-1" value="UI-UX" style="rounded=0;whiteSpace=wrap;html=1;" vertex="1" parent="1">
          <mxGeometry x="60" y="145" width="100" height="50" as="geometry" />
        </mxCell>
        <mxCell id="k0sRTmFZn3dnaTxquW7G-7" style="edgeStyle=orthogonalEdgeStyle;curved=1;rounded=0;orthogonalLoop=1;jettySize=auto;html=1;" edge="1" parent="1" source="eSHc3VcAs7KuDRajMVns-2" target="eJXzKw355hA63iurN4_m-3">
          <mxGeometry relative="1" as="geometry">
            <Array as="points">
              <mxPoint x="220" y="60" />
              <mxPoint x="220" y="60" />
            </Array>
          </mxGeometry>
        </mxCell>
        <mxCell id="k0sRTmFZn3dnaTxquW7G-8" value="Query IDs" style="edgeLabel;html=1;align=center;verticalAlign=middle;resizable=0;points=[];" vertex="1" connectable="0" parent="k0sRTmFZn3dnaTxquW7G-7">
          <mxGeometry x="0.0782" y="1" relative="1" as="geometry">
            <mxPoint y="-9" as="offset" />
          </mxGeometry>
        </mxCell>
        <mxCell id="eSHc3VcAs7KuDRajMVns-2" value="Ranking" style="rounded=0;whiteSpace=wrap;html=1;" vertex="1" parent="1">
          <mxGeometry x="60" y="40" width="100" height="50" as="geometry" />
        </mxCell>
        <mxCell id="k0sRTmFZn3dnaTxquW7G-11" style="edgeStyle=orthogonalEdgeStyle;curved=1;rounded=0;orthogonalLoop=1;jettySize=auto;html=1;" edge="1" parent="1" source="eSHc3VcAs7KuDRajMVns-3" target="eJXzKw355hA63iurN4_m-3">
          <mxGeometry relative="1" as="geometry">
            <Array as="points">
              <mxPoint x="500" y="70" />
            </Array>
          </mxGeometry>
        </mxCell>
        <mxCell id="k0sRTmFZn3dnaTxquW7G-12" value="Query&lt;div&gt;Interaction&lt;div&gt;Data&lt;/div&gt;&lt;/div&gt;" style="edgeLabel;html=1;align=center;verticalAlign=middle;resizable=0;points=[];" vertex="1" connectable="0" parent="k0sRTmFZn3dnaTxquW7G-11">
          <mxGeometry x="0.2733" y="7" relative="1" as="geometry">
            <mxPoint x="55" y="-12" as="offset" />
          </mxGeometry>
        </mxCell>
        <mxCell id="k0sRTmFZn3dnaTxquW7G-13" style="edgeStyle=orthogonalEdgeStyle;curved=1;rounded=0;orthogonalLoop=1;jettySize=auto;html=1;" edge="1" parent="1" source="eSHc3VcAs7KuDRajMVns-3" target="eJXzKw355hA63iurN4_m-1">
          <mxGeometry relative="1" as="geometry">
            <Array as="points">
              <mxPoint x="500" y="260" />
            </Array>
          </mxGeometry>
        </mxCell>
        <mxCell id="k0sRTmFZn3dnaTxquW7G-15" value="New Unique&lt;div&gt;Query ID&lt;/div&gt;" style="edgeLabel;html=1;align=center;verticalAlign=middle;resizable=0;points=[];" vertex="1" connectable="0" parent="k0sRTmFZn3dnaTxquW7G-13">
          <mxGeometry x="0.0581" y="-16" relative="1" as="geometry">
            <mxPoint x="-55" y="-14" as="offset" />
          </mxGeometry>
        </mxCell>
        <mxCell id="k0sRTmFZn3dnaTxquW7G-22" style="edgeStyle=orthogonalEdgeStyle;curved=1;rounded=0;orthogonalLoop=1;jettySize=auto;html=1;" edge="1" parent="1" source="eSHc3VcAs7KuDRajMVns-3" target="eJXzKw355hA63iurN4_m-2">
          <mxGeometry relative="1" as="geometry">
            <Array as="points">
              <mxPoint x="400" y="160" />
              <mxPoint x="400" y="160" />
            </Array>
          </mxGeometry>
        </mxCell>
        <mxCell id="k0sRTmFZn3dnaTxquW7G-23" value="Matching&lt;div&gt;Queries&lt;/div&gt;" style="edgeLabel;html=1;align=center;verticalAlign=middle;resizable=0;points=[];" vertex="1" connectable="0" parent="k0sRTmFZn3dnaTxquW7G-22">
          <mxGeometry x="-0.1579" y="4" relative="1" as="geometry">
            <mxPoint x="-10" y="-19" as="offset" />
          </mxGeometry>
        </mxCell>
        <mxCell id="eSHc3VcAs7KuDRajMVns-3" value="Search Data" style="html=1;dashed=0;whiteSpace=wrap;shape=partialRectangle;right=0;left=0;" vertex="1" parent="1">
          <mxGeometry x="450" y="145" width="100" height="30" as="geometry" />
        </mxCell>
        <mxCell id="k0sRTmFZn3dnaTxquW7G-16" style="edgeStyle=orthogonalEdgeStyle;curved=1;rounded=0;orthogonalLoop=1;jettySize=auto;html=1;" edge="1" parent="1" source="eJXzKw355hA63iurN4_m-1" target="eSHc3VcAs7KuDRajMVns-1">
          <mxGeometry relative="1" as="geometry">
            <Array as="points">
              <mxPoint x="130" y="270" />
            </Array>
          </mxGeometry>
        </mxCell>
        <mxCell id="k0sRTmFZn3dnaTxquW7G-17" value="New Unique&lt;br&gt;Query ID" style="edgeLabel;html=1;align=center;verticalAlign=middle;resizable=0;points=[];" vertex="1" connectable="0" parent="k0sRTmFZn3dnaTxquW7G-16">
          <mxGeometry x="-0.2851" y="-2" relative="1" as="geometry">
            <mxPoint x="33" y="-18" as="offset" />
          </mxGeometry>
        </mxCell>
        <mxCell id="eJXzKw355hA63iurN4_m-1" value="Get Query ID" style="ellipse;whiteSpace=wrap;html=1;aspect=fixed;" vertex="1" parent="1">
          <mxGeometry x="260" y="230" width="80" height="80" as="geometry" />
        </mxCell>
        <mxCell id="k0sRTmFZn3dnaTxquW7G-20" style="edgeStyle=orthogonalEdgeStyle;curved=1;rounded=0;orthogonalLoop=1;jettySize=auto;html=1;" edge="1" parent="1" source="eJXzKw355hA63iurN4_m-2" target="eSHc3VcAs7KuDRajMVns-1">
          <mxGeometry relative="1" as="geometry">
            <Array as="points">
              <mxPoint x="180" y="180" />
              <mxPoint x="180" y="180" />
            </Array>
          </mxGeometry>
        </mxCell>
        <mxCell id="k0sRTmFZn3dnaTxquW7G-21" value="Autofill&lt;div&gt;Suggestions&lt;/div&gt;" style="edgeLabel;html=1;align=center;verticalAlign=middle;resizable=0;points=[];" vertex="1" connectable="0" parent="k0sRTmFZn3dnaTxquW7G-20">
          <mxGeometry x="0.0027" y="4" relative="1" as="geometry">
            <mxPoint y="11" as="offset" />
          </mxGeometry>
        </mxCell>
        <mxCell id="eJXzKw355hA63iurN4_m-2" value="Get Autofill" style="ellipse;whiteSpace=wrap;html=1;aspect=fixed;" vertex="1" parent="1">
          <mxGeometry x="260" y="130" width="80" height="80" as="geometry" />
        </mxCell>
        <mxCell id="k0sRTmFZn3dnaTxquW7G-9" style="edgeStyle=orthogonalEdgeStyle;curved=1;rounded=0;orthogonalLoop=1;jettySize=auto;html=1;" edge="1" parent="1" source="eJXzKw355hA63iurN4_m-3" target="eSHc3VcAs7KuDRajMVns-2">
          <mxGeometry relative="1" as="geometry">
            <Array as="points">
              <mxPoint x="210" y="70" />
              <mxPoint x="210" y="70" />
            </Array>
          </mxGeometry>
        </mxCell>
        <mxCell id="k0sRTmFZn3dnaTxquW7G-10" value="Query&lt;div&gt;Interaction&lt;div&gt;Data&lt;/div&gt;&lt;/div&gt;" style="edgeLabel;html=1;align=center;verticalAlign=middle;resizable=0;points=[];" vertex="1" connectable="0" parent="k0sRTmFZn3dnaTxquW7G-9">
          <mxGeometry x="0.242" y="-1" relative="1" as="geometry">
            <mxPoint x="16" y="21" as="offset" />
          </mxGeometry>
        </mxCell>
        <mxCell id="eJXzKw355hA63iurN4_m-3" value="Get Query Data" style="ellipse;whiteSpace=wrap;html=1;aspect=fixed;" vertex="1" parent="1">
          <mxGeometry x="260" y="25" width="80" height="80" as="geometry" />
        </mxCell>
      </root>
    </mxGraphModel>
  </diagram>
  <diagram name="GetAutofill" id="J7rwuf44PSacta0qUfOk">
    <mxGraphModel dx="1608" dy="874" grid="1" gridSize="10" guides="1" tooltips="1" connect="1" arrows="1" fold="1" page="1" pageScale="1" pageWidth="850" pageHeight="1100" math="0" shadow="0">
      <root>
        <mxCell id="0" />
        <mxCell id="1" parent="0" />
        <mxCell id="DY8H4EauE9e4uxjvUYNh-1" value="UI-UX" style="rounded=0;whiteSpace=wrap;html=1;" parent="1" vertex="1">
          <mxGeometry x="200" y="50" width="120" height="60" as="geometry" />
        </mxCell>
        <mxCell id="DY8H4EauE9e4uxjvUYNh-3" value="Parse Input" style="ellipse;whiteSpace=wrap;html=1;aspect=fixed;" parent="1" vertex="1">
          <mxGeometry x="220" y="150" width="80" height="80" as="geometry" />
        </mxCell>
        <mxCell id="DY8H4EauE9e4uxjvUYNh-4" value="" style="curved=1;endArrow=classic;html=1;rounded=0;" parent="1" source="DY8H4EauE9e4uxjvUYNh-1" target="DY8H4EauE9e4uxjvUYNh-3" edge="1">
          <mxGeometry width="50" height="50" relative="1" as="geometry">
            <mxPoint x="80" y="520" as="sourcePoint" />
            <mxPoint x="340" y="520" as="targetPoint" />
            <Array as="points" />
          </mxGeometry>
        </mxCell>
        <mxCell id="DY8H4EauE9e4uxjvUYNh-5" value="getAutofill&lt;br&gt;JSON Request" style="edgeLabel;html=1;align=center;verticalAlign=middle;resizable=0;points=[];" parent="DY8H4EauE9e4uxjvUYNh-4" vertex="1" connectable="0">
          <mxGeometry x="-0.3" y="1" relative="1" as="geometry">
            <mxPoint x="-41" y="6" as="offset" />
          </mxGeometry>
        </mxCell>
        <mxCell id="DY8H4EauE9e4uxjvUYNh-6" value="" style="curved=1;endArrow=classic;html=1;rounded=0;" parent="1" source="DY8H4EauE9e4uxjvUYNh-3" target="DY8H4EauE9e4uxjvUYNh-12" edge="1">
          <mxGeometry width="50" height="50" relative="1" as="geometry">
            <mxPoint x="340" y="260" as="sourcePoint" />
            <mxPoint x="500" y="280" as="targetPoint" />
            <Array as="points">
              <mxPoint x="340" y="250" />
            </Array>
          </mxGeometry>
        </mxCell>
        <mxCell id="DY8H4EauE9e4uxjvUYNh-7" value="Partial Query" style="edgeLabel;html=1;align=center;verticalAlign=middle;resizable=0;points=[];" parent="DY8H4EauE9e4uxjvUYNh-6" vertex="1" connectable="0">
          <mxGeometry x="-0.3" y="1" relative="1" as="geometry">
            <mxPoint x="-12" y="28" as="offset" />
          </mxGeometry>
        </mxCell>
        <mxCell id="DY8H4EauE9e4uxjvUYNh-11" value="Search Data" style="html=1;dashed=0;whiteSpace=wrap;shape=partialRectangle;right=0;left=0;" parent="1" vertex="1">
          <mxGeometry x="670" y="175" width="100" height="30" as="geometry" />
        </mxCell>
        <mxCell id="DY8H4EauE9e4uxjvUYNh-15" value="Search for Queries" style="ellipse;whiteSpace=wrap;html=1;aspect=fixed;" parent="1" vertex="1">
          <mxGeometry x="510" y="150" width="80" height="80" as="geometry" />
        </mxCell>
        <mxCell id="DY8H4EauE9e4uxjvUYNh-12" value="Check for Typos" style="ellipse;whiteSpace=wrap;html=1;aspect=fixed;" parent="1" vertex="1">
          <mxGeometry x="360" y="240" width="80" height="80" as="geometry" />
        </mxCell>
        <mxCell id="DY8H4EauE9e4uxjvUYNh-18" value="" style="curved=1;endArrow=classic;html=1;rounded=0;" parent="1" source="DY8H4EauE9e4uxjvUYNh-12" target="DY8H4EauE9e4uxjvUYNh-15" edge="1">
          <mxGeometry width="50" height="50" relative="1" as="geometry">
            <mxPoint x="432" y="296" as="sourcePoint" />
            <mxPoint x="528" y="224" as="targetPoint" />
            <Array as="points" />
          </mxGeometry>
        </mxCell>
        <mxCell id="DY8H4EauE9e4uxjvUYNh-19" value="Typo&lt;div&gt;Corrected&lt;/div&gt;&lt;div&gt;Query&lt;/div&gt;" style="edgeLabel;html=1;align=center;verticalAlign=middle;resizable=0;points=[];" parent="DY8H4EauE9e4uxjvUYNh-18" vertex="1" connectable="0">
          <mxGeometry x="-0.0579" y="13" relative="1" as="geometry">
            <mxPoint x="24" y="34" as="offset" />
          </mxGeometry>
        </mxCell>
        <mxCell id="DY8H4EauE9e4uxjvUYNh-21" value="" style="curved=1;endArrow=classic;html=1;rounded=0;" parent="1" source="DY8H4EauE9e4uxjvUYNh-11" target="DY8H4EauE9e4uxjvUYNh-15" edge="1">
          <mxGeometry width="50" height="50" relative="1" as="geometry">
            <mxPoint x="310" y="200" as="sourcePoint" />
            <mxPoint x="520" y="200" as="targetPoint" />
            <Array as="points" />
          </mxGeometry>
        </mxCell>
        <mxCell id="DY8H4EauE9e4uxjvUYNh-22" value="Matching&lt;div&gt;Queries&lt;/div&gt;" style="edgeLabel;html=1;align=center;verticalAlign=middle;resizable=0;points=[];" parent="DY8H4EauE9e4uxjvUYNh-21" vertex="1" connectable="0">
          <mxGeometry x="-0.3" y="1" relative="1" as="geometry">
            <mxPoint x="-12" y="-16" as="offset" />
          </mxGeometry>
        </mxCell>
        <mxCell id="DY8H4EauE9e4uxjvUYNh-23" value="" style="curved=1;endArrow=classic;html=1;rounded=0;" parent="1" source="DY8H4EauE9e4uxjvUYNh-3" target="DY8H4EauE9e4uxjvUYNh-15" edge="1">
          <mxGeometry width="50" height="50" relative="1" as="geometry">
            <mxPoint x="302" y="224" as="sourcePoint" />
            <mxPoint x="375" y="289" as="targetPoint" />
            <Array as="points">
              <mxPoint x="410" y="230" />
            </Array>
          </mxGeometry>
        </mxCell>
        <mxCell id="DY8H4EauE9e4uxjvUYNh-24" value="Partial Query" style="edgeLabel;html=1;align=center;verticalAlign=middle;resizable=0;points=[];" parent="DY8H4EauE9e4uxjvUYNh-23" vertex="1" connectable="0">
          <mxGeometry x="-0.3" y="1" relative="1" as="geometry">
            <mxPoint x="37" y="-14" as="offset" />
          </mxGeometry>
        </mxCell>
        <mxCell id="DY8H4EauE9e4uxjvUYNh-26" value="" style="curved=1;endArrow=classic;html=1;rounded=0;" parent="1" source="DY8H4EauE9e4uxjvUYNh-3" target="DY8H4EauE9e4uxjvUYNh-15" edge="1">
          <mxGeometry width="50" height="50" relative="1" as="geometry">
            <mxPoint x="310" y="200" as="sourcePoint" />
            <mxPoint x="480" y="80" as="targetPoint" />
            <Array as="points">
              <mxPoint x="410" y="150" />
            </Array>
          </mxGeometry>
        </mxCell>
        <mxCell id="DY8H4EauE9e4uxjvUYNh-27" value="Number Requested" style="edgeLabel;html=1;align=center;verticalAlign=middle;resizable=0;points=[];" parent="DY8H4EauE9e4uxjvUYNh-26" vertex="1" connectable="0">
          <mxGeometry x="-0.3" y="1" relative="1" as="geometry">
            <mxPoint x="37" y="-9" as="offset" />
          </mxGeometry>
        </mxCell>
        <mxCell id="DY8H4EauE9e4uxjvUYNh-28" value="Format&lt;div&gt;Output&lt;/div&gt;" style="ellipse;whiteSpace=wrap;html=1;aspect=fixed;" parent="1" vertex="1">
          <mxGeometry x="430" y="40" width="80" height="80" as="geometry" />
        </mxCell>
        <mxCell id="DY8H4EauE9e4uxjvUYNh-29" value="" style="curved=1;endArrow=classic;html=1;rounded=0;" parent="1" source="DY8H4EauE9e4uxjvUYNh-28" target="DY8H4EauE9e4uxjvUYNh-1" edge="1">
          <mxGeometry width="50" height="50" relative="1" as="geometry">
            <mxPoint x="309" y="190" as="sourcePoint" />
            <mxPoint x="522" y="189" as="targetPoint" />
            <Array as="points" />
          </mxGeometry>
        </mxCell>
        <mxCell id="DY8H4EauE9e4uxjvUYNh-31" value="getAutofill&lt;div&gt;JSON Response&lt;/div&gt;" style="edgeLabel;html=1;align=center;verticalAlign=middle;resizable=0;points=[];" parent="DY8H4EauE9e4uxjvUYNh-29" vertex="1" connectable="0">
          <mxGeometry x="0.3043" y="-1" relative="1" as="geometry">
            <mxPoint x="22" y="-19" as="offset" />
          </mxGeometry>
        </mxCell>
        <mxCell id="DY8H4EauE9e4uxjvUYNh-32" value="" style="curved=1;endArrow=classic;html=1;rounded=0;" parent="1" source="DY8H4EauE9e4uxjvUYNh-15" target="DY8H4EauE9e4uxjvUYNh-28" edge="1">
          <mxGeometry width="50" height="50" relative="1" as="geometry">
            <mxPoint x="740" y="200" as="sourcePoint" />
            <mxPoint x="600" y="200" as="targetPoint" />
            <Array as="points" />
          </mxGeometry>
        </mxCell>
        <mxCell id="DY8H4EauE9e4uxjvUYNh-33" value="Matching&amp;nbsp;&lt;div&gt;Queries&lt;/div&gt;" style="edgeLabel;html=1;align=center;verticalAlign=middle;resizable=0;points=[];" parent="DY8H4EauE9e4uxjvUYNh-32" vertex="1" connectable="0">
          <mxGeometry x="-0.3" y="1" relative="1" as="geometry">
            <mxPoint x="26" y="-23" as="offset" />
          </mxGeometry>
        </mxCell>
      </root>
    </mxGraphModel>
  </diagram>
  <diagram id="P5XgKkA5cj1iciKfZ8Q3" name="ReportSearchResults">
    <mxGraphModel dx="681" dy="874" grid="1" gridSize="10" guides="1" tooltips="1" connect="1" arrows="1" fold="1" page="1" pageScale="1" pageWidth="850" pageHeight="1100" math="0" shadow="0">
      <root>
        <mxCell id="0" />
        <mxCell id="1" parent="0" />
        <mxCell id="D012OBWpYc8QouDb0Uad-1" value="UI-UX" style="rounded=0;whiteSpace=wrap;html=1;" parent="1" vertex="1">
          <mxGeometry x="20" y="90" width="120" height="60" as="geometry" />
        </mxCell>
        <mxCell id="s0PFEVFDxEpkqsdkwT6v-1" value="" style="curved=1;endArrow=classic;html=1;rounded=0;" parent="1" source="D012OBWpYc8QouDb0Uad-1" target="s0PFEVFDxEpkqsdkwT6v-4" edge="1">
          <mxGeometry width="50" height="50" relative="1" as="geometry">
            <mxPoint x="229" y="180" as="sourcePoint" />
            <mxPoint x="260" y="120" as="targetPoint" />
            <Array as="points" />
          </mxGeometry>
        </mxCell>
        <mxCell id="s0PFEVFDxEpkqsdkwT6v-3" value="reportInteractions&lt;br&gt;JSON Format" style="edgeLabel;html=1;align=center;verticalAlign=middle;resizable=0;points=[];" parent="s0PFEVFDxEpkqsdkwT6v-1" vertex="1" connectable="0">
          <mxGeometry x="-0.0821" relative="1" as="geometry">
            <mxPoint x="5" y="-20" as="offset" />
          </mxGeometry>
        </mxCell>
        <mxCell id="s0PFEVFDxEpkqsdkwT6v-4" value="Parse Input" style="ellipse;whiteSpace=wrap;html=1;aspect=fixed;" parent="1" vertex="1">
          <mxGeometry x="260" y="80" width="80" height="80" as="geometry" />
        </mxCell>
        <mxCell id="THsdvZaT8uMPJ1qQeaqC-18" value="Format to JSON for Link Analysis" style="ellipse;whiteSpace=wrap;html=1;aspect=fixed;" parent="1" vertex="1">
          <mxGeometry x="460" y="40" width="80" height="80" as="geometry" />
        </mxCell>
        <mxCell id="THsdvZaT8uMPJ1qQeaqC-19" value="" style="curved=1;endArrow=classic;html=1;rounded=0;" parent="1" source="s0PFEVFDxEpkqsdkwT6v-4" target="THsdvZaT8uMPJ1qQeaqC-18" edge="1">
          <mxGeometry width="50" height="50" relative="1" as="geometry">
            <mxPoint x="348" y="119" as="sourcePoint" />
            <mxPoint x="472" y="81" as="targetPoint" />
            <Array as="points" />
          </mxGeometry>
        </mxCell>
        <mxCell id="THsdvZaT8uMPJ1qQeaqC-20" value="Results&lt;br&gt;Links Clicked&lt;br&gt;Links Ignored&lt;br&gt;Timestamp" style="edgeLabel;html=1;align=center;verticalAlign=middle;resizable=0;points=[];" parent="THsdvZaT8uMPJ1qQeaqC-19" vertex="1" connectable="0">
          <mxGeometry x="-0.0821" relative="1" as="geometry">
            <mxPoint x="-5" y="-41" as="offset" />
          </mxGeometry>
        </mxCell>
        <mxCell id="THsdvZaT8uMPJ1qQeaqC-22" value="Link Analysis" style="rounded=0;whiteSpace=wrap;html=1;" parent="1" vertex="1">
          <mxGeometry x="650" y="50" width="120" height="60" as="geometry" />
        </mxCell>
        <mxCell id="THsdvZaT8uMPJ1qQeaqC-25" value="" style="curved=1;endArrow=classic;html=1;rounded=0;" parent="1" source="THsdvZaT8uMPJ1qQeaqC-18" target="THsdvZaT8uMPJ1qQeaqC-22" edge="1">
          <mxGeometry width="50" height="50" relative="1" as="geometry">
            <mxPoint x="550" y="70" as="sourcePoint" />
            <mxPoint x="700" y="70" as="targetPoint" />
            <Array as="points" />
          </mxGeometry>
        </mxCell>
        <mxCell id="THsdvZaT8uMPJ1qQeaqC-26" value="updateLinkGraph&lt;br&gt;JSON Format" style="edgeLabel;html=1;align=center;verticalAlign=middle;resizable=0;points=[];" parent="THsdvZaT8uMPJ1qQeaqC-25" vertex="1" connectable="0">
          <mxGeometry x="-0.0821" relative="1" as="geometry">
            <mxPoint x="1" y="-20" as="offset" />
          </mxGeometry>
        </mxCell>
        <mxCell id="CKnAi0aXt8nieOdNIMJn-1" value="Search Data" style="html=1;dashed=0;whiteSpace=wrap;shape=partialRectangle;right=0;left=0;" parent="1" vertex="1">
          <mxGeometry x="660" y="185" width="100" height="30" as="geometry" />
        </mxCell>
        <mxCell id="CKnAi0aXt8nieOdNIMJn-2" value="" style="curved=1;endArrow=classic;html=1;rounded=0;" parent="1" source="s0PFEVFDxEpkqsdkwT6v-4" target="CKnAi0aXt8nieOdNIMJn-4" edge="1">
          <mxGeometry width="50" height="50" relative="1" as="geometry">
            <mxPoint x="280.00199215099093" y="161.23201177351365" as="sourcePoint" />
            <mxPoint x="254.8391106406736" y="210.00266807797942" as="targetPoint" />
            <Array as="points" />
          </mxGeometry>
        </mxCell>
        <mxCell id="CKnAi0aXt8nieOdNIMJn-3" value="All Received&lt;br&gt;Data" style="edgeLabel;html=1;align=center;verticalAlign=middle;resizable=0;points=[];" parent="CKnAi0aXt8nieOdNIMJn-2" vertex="1" connectable="0">
          <mxGeometry x="-0.0821" relative="1" as="geometry">
            <mxPoint x="-25" y="22" as="offset" />
          </mxGeometry>
        </mxCell>
        <mxCell id="CKnAi0aXt8nieOdNIMJn-4" value="Format Data for Storage" style="ellipse;whiteSpace=wrap;html=1;aspect=fixed;" parent="1" vertex="1">
          <mxGeometry x="460" y="160" width="80" height="80" as="geometry" />
        </mxCell>
        <mxCell id="CKnAi0aXt8nieOdNIMJn-8" value="" style="curved=1;endArrow=classic;html=1;rounded=0;" parent="1" source="CKnAi0aXt8nieOdNIMJn-4" target="CKnAi0aXt8nieOdNIMJn-1" edge="1">
          <mxGeometry width="50" height="50" relative="1" as="geometry">
            <mxPoint x="348" y="119" as="sourcePoint" />
            <mxPoint x="472" y="81" as="targetPoint" />
            <Array as="points" />
          </mxGeometry>
        </mxCell>
        <mxCell id="CKnAi0aXt8nieOdNIMJn-9" value="Formatted Data" style="edgeLabel;html=1;align=center;verticalAlign=middle;resizable=0;points=[];" parent="CKnAi0aXt8nieOdNIMJn-8" vertex="1" connectable="0">
          <mxGeometry x="-0.0821" relative="1" as="geometry">
            <mxPoint y="-15" as="offset" />
          </mxGeometry>
        </mxCell>
      </root>
    </mxGraphModel>
  </diagram>
  <diagram id="BT7JApbar_QUwJMmY69S" name="ReportMetric">
    <mxGraphModel dx="324" dy="416" grid="1" gridSize="10" guides="1" tooltips="1" connect="1" arrows="1" fold="1" page="1" pageScale="1" pageWidth="850" pageHeight="1100" math="0" shadow="0">
      <root>
        <mxCell id="0" />
        <mxCell id="1" parent="0" />
        <mxCell id="TMgBdfBjt6_QnDaa0cRL-1" value="Any Component" style="rounded=0;whiteSpace=wrap;html=1;" parent="1" vertex="1">
          <mxGeometry x="80" y="90" width="120" height="60" as="geometry" />
        </mxCell>
        <mxCell id="TMgBdfBjt6_QnDaa0cRL-2" value="" style="curved=1;endArrow=classic;html=1;rounded=0;" parent="1" source="TMgBdfBjt6_QnDaa0cRL-1" target="wRG0R8JKdzS6ZTXx9vw7-1" edge="1">
          <mxGeometry width="50" height="50" relative="1" as="geometry">
            <mxPoint x="270" y="130" as="sourcePoint" />
            <mxPoint x="400" y="120" as="targetPoint" />
            <Array as="points" />
          </mxGeometry>
        </mxCell>
        <mxCell id="8HzZmwoHxrPOwEz4l8g5-1" value="reportMetrics&lt;br&gt;JSON Request" style="edgeLabel;html=1;align=center;verticalAlign=middle;resizable=0;points=[];" parent="TMgBdfBjt6_QnDaa0cRL-2" vertex="1" connectable="0">
          <mxGeometry x="-0.1" y="1" relative="1" as="geometry">
            <mxPoint x="-51" y="-2" as="offset" />
          </mxGeometry>
        </mxCell>
        <mxCell id="wRG0R8JKdzS6ZTXx9vw7-1" value="Parse Input" style="ellipse;whiteSpace=wrap;html=1;aspect=fixed;" parent="1" vertex="1">
          <mxGeometry x="100" y="220" width="80" height="80" as="geometry" />
        </mxCell>
        <mxCell id="wRG0R8JKdzS6ZTXx9vw7-3" value="" style="curved=1;endArrow=classic;html=1;rounded=0;" parent="1" source="wRG0R8JKdzS6ZTXx9vw7-1" target="wRG0R8JKdzS6ZTXx9vw7-10" edge="1">
          <mxGeometry width="50" height="50" relative="1" as="geometry">
            <mxPoint x="215" y="290" as="sourcePoint" />
            <mxPoint x="375" y="290" as="targetPoint" />
            <Array as="points" />
          </mxGeometry>
        </mxCell>
        <mxCell id="wRG0R8JKdzS6ZTXx9vw7-4" value="Value" style="edgeLabel;html=1;align=center;verticalAlign=middle;resizable=0;points=[];" parent="wRG0R8JKdzS6ZTXx9vw7-3" vertex="1" connectable="0">
          <mxGeometry x="-0.1" y="1" relative="1" as="geometry">
            <mxPoint x="-12" y="13" as="offset" />
          </mxGeometry>
        </mxCell>
        <mxCell id="wRG0R8JKdzS6ZTXx9vw7-5" value="" style="curved=1;endArrow=classic;html=1;rounded=0;" parent="1" source="wRG0R8JKdzS6ZTXx9vw7-1" target="wRG0R8JKdzS6ZTXx9vw7-9" edge="1">
          <mxGeometry width="50" height="50" relative="1" as="geometry">
            <mxPoint x="220" y="260" as="sourcePoint" />
            <mxPoint x="375" y="259.5" as="targetPoint" />
            <Array as="points">
              <mxPoint x="260" y="280" />
            </Array>
          </mxGeometry>
        </mxCell>
        <mxCell id="wRG0R8JKdzS6ZTXx9vw7-6" value="Label" style="edgeLabel;html=1;align=center;verticalAlign=middle;resizable=0;points=[];" parent="wRG0R8JKdzS6ZTXx9vw7-5" vertex="1" connectable="0">
          <mxGeometry x="-0.1" y="1" relative="1" as="geometry">
            <mxPoint x="11" y="-16" as="offset" />
          </mxGeometry>
        </mxCell>
        <mxCell id="wRG0R8JKdzS6ZTXx9vw7-7" value="" style="curved=1;endArrow=classic;html=1;rounded=0;" parent="1" source="wRG0R8JKdzS6ZTXx9vw7-1" target="wRG0R8JKdzS6ZTXx9vw7-9" edge="1">
          <mxGeometry width="50" height="50" relative="1" as="geometry">
            <mxPoint x="215" y="230" as="sourcePoint" />
            <mxPoint x="375" y="230" as="targetPoint" />
            <Array as="points">
              <mxPoint x="260" y="220" />
            </Array>
          </mxGeometry>
        </mxCell>
        <mxCell id="wRG0R8JKdzS6ZTXx9vw7-8" value="Component" style="edgeLabel;html=1;align=center;verticalAlign=middle;resizable=0;points=[];" parent="wRG0R8JKdzS6ZTXx9vw7-7" vertex="1" connectable="0">
          <mxGeometry x="-0.1" y="1" relative="1" as="geometry">
            <mxPoint x="11" y="-2" as="offset" />
          </mxGeometry>
        </mxCell>
        <mxCell id="wRG0R8JKdzS6ZTXx9vw7-9" value="Update Appropriate metric value" style="ellipse;whiteSpace=wrap;html=1;aspect=fixed;" parent="1" vertex="1">
          <mxGeometry x="330" y="220" width="80" height="80" as="geometry" />
        </mxCell>
        <mxCell id="wRG0R8JKdzS6ZTXx9vw7-10" value="Parse Value" style="ellipse;whiteSpace=wrap;html=1;aspect=fixed;" parent="1" vertex="1">
          <mxGeometry x="220" y="300" width="80" height="80" as="geometry" />
        </mxCell>
        <mxCell id="wRG0R8JKdzS6ZTXx9vw7-12" value="" style="curved=1;endArrow=classic;html=1;rounded=0;" parent="1" source="wRG0R8JKdzS6ZTXx9vw7-10" target="wRG0R8JKdzS6ZTXx9vw7-9" edge="1">
          <mxGeometry width="50" height="50" relative="1" as="geometry">
            <mxPoint x="185" y="289" as="sourcePoint" />
            <mxPoint x="410" y="290" as="targetPoint" />
            <Array as="points" />
          </mxGeometry>
        </mxCell>
        <mxCell id="wRG0R8JKdzS6ZTXx9vw7-13" value="Value Data" style="edgeLabel;html=1;align=center;verticalAlign=middle;resizable=0;points=[];" parent="wRG0R8JKdzS6ZTXx9vw7-12" vertex="1" connectable="0">
          <mxGeometry x="-0.1" y="1" relative="1" as="geometry">
            <mxPoint x="9" y="19" as="offset" />
          </mxGeometry>
        </mxCell>
        <mxCell id="wRG0R8JKdzS6ZTXx9vw7-14" value="Metric Data" style="html=1;dashed=0;whiteSpace=wrap;shape=partialRectangle;right=0;left=0;" parent="1" vertex="1">
          <mxGeometry x="320" y="110" width="100" height="30" as="geometry" />
        </mxCell>
        <mxCell id="wRG0R8JKdzS6ZTXx9vw7-15" value="" style="curved=1;endArrow=classic;html=1;rounded=0;" parent="1" source="wRG0R8JKdzS6ZTXx9vw7-9" target="wRG0R8JKdzS6ZTXx9vw7-14" edge="1">
          <mxGeometry width="50" height="50" relative="1" as="geometry">
            <mxPoint x="189" y="260" as="sourcePoint" />
            <mxPoint x="411" y="260" as="targetPoint" />
            <Array as="points">
              <mxPoint x="400" y="180" />
            </Array>
          </mxGeometry>
        </mxCell>
        <mxCell id="wRG0R8JKdzS6ZTXx9vw7-16" value="New&lt;br&gt;Metric&lt;div&gt;Value&lt;/div&gt;" style="edgeLabel;html=1;align=center;verticalAlign=middle;resizable=0;points=[];" parent="wRG0R8JKdzS6ZTXx9vw7-15" vertex="1" connectable="0">
          <mxGeometry x="-0.1" y="1" relative="1" as="geometry">
            <mxPoint x="23" y="-2" as="offset" />
          </mxGeometry>
        </mxCell>
        <mxCell id="G1t6V2pgbkr5QKMB30tB-1" value="" style="curved=1;endArrow=classic;html=1;rounded=0;" edge="1" parent="1" source="wRG0R8JKdzS6ZTXx9vw7-14" target="wRG0R8JKdzS6ZTXx9vw7-9">
          <mxGeometry width="50" height="50" relative="1" as="geometry">
            <mxPoint x="371.81818181818176" y="160" as="sourcePoint" />
            <mxPoint x="365.95506233647416" y="242.5468328972646" as="targetPoint" />
            <Array as="points">
              <mxPoint x="340" y="180" />
            </Array>
          </mxGeometry>
        </mxCell>
        <mxCell id="G1t6V2pgbkr5QKMB30tB-2" value="Previous&lt;br&gt;Metric&lt;br&gt;Value" style="edgeLabel;html=1;align=center;verticalAlign=middle;resizable=0;points=[];" vertex="1" connectable="0" parent="G1t6V2pgbkr5QKMB30tB-1">
          <mxGeometry x="-0.1" y="1" relative="1" as="geometry">
            <mxPoint x="-23" y="4" as="offset" />
          </mxGeometry>
        </mxCell>
      </root>
    </mxGraphModel>
  </diagram>
  <diagram id="uBxiSBCFzvX7I9Q7onJZ" name="AdminView">
    <mxGraphModel dx="518" dy="672" grid="1" gridSize="10" guides="1" tooltips="1" connect="1" arrows="1" fold="1" page="1" pageScale="1" pageWidth="850" pageHeight="1100" math="0" shadow="0">
      <root>
        <mxCell id="0" />
        <mxCell id="1" parent="0" />
        <mxCell id="THQqdPNAuBJvjNnL2mm--1" value="Admin" style="rounded=0;whiteSpace=wrap;html=1;" parent="1" vertex="1">
          <mxGeometry x="80" y="30" width="120" height="60" as="geometry" />
        </mxCell>
        <mxCell id="THQqdPNAuBJvjNnL2mm--2" value="" style="curved=1;endArrow=classic;html=1;rounded=0;" parent="1" source="THQqdPNAuBJvjNnL2mm--1" target="THQqdPNAuBJvjNnL2mm--4" edge="1">
          <mxGeometry width="50" height="50" relative="1" as="geometry">
            <mxPoint x="150" y="260" as="sourcePoint" />
            <mxPoint x="140" y="200" as="targetPoint" />
            <Array as="points" />
          </mxGeometry>
        </mxCell>
        <mxCell id="THQqdPNAuBJvjNnL2mm--3" value="Command&lt;div&gt;Line&lt;/div&gt;&lt;div&gt;Request&lt;/div&gt;" style="edgeLabel;html=1;align=center;verticalAlign=middle;resizable=0;points=[];" parent="THQqdPNAuBJvjNnL2mm--2" vertex="1" connectable="0">
          <mxGeometry x="-0.0286" y="-1" relative="1" as="geometry">
            <mxPoint x="-29" y="1" as="offset" />
          </mxGeometry>
        </mxCell>
        <mxCell id="THQqdPNAuBJvjNnL2mm--4" value="Parse Request" style="ellipse;whiteSpace=wrap;html=1;aspect=fixed;" parent="1" vertex="1">
          <mxGeometry x="100" y="200" width="80" height="80" as="geometry" />
        </mxCell>
        <mxCell id="THQqdPNAuBJvjNnL2mm--5" value="Get Reqested Metrics" style="ellipse;whiteSpace=wrap;html=1;aspect=fixed;" parent="1" vertex="1">
          <mxGeometry x="240" y="140" width="80" height="80" as="geometry" />
        </mxCell>
        <mxCell id="THQqdPNAuBJvjNnL2mm--6" value="" style="curved=1;endArrow=classic;html=1;rounded=0;" parent="1" source="THQqdPNAuBJvjNnL2mm--4" target="THQqdPNAuBJvjNnL2mm--5" edge="1">
          <mxGeometry width="50" height="50" relative="1" as="geometry">
            <mxPoint x="150" y="140" as="sourcePoint" />
            <mxPoint x="150" y="220" as="targetPoint" />
            <Array as="points" />
          </mxGeometry>
        </mxCell>
        <mxCell id="THQqdPNAuBJvjNnL2mm--7" value="Metrics&lt;div&gt;Request&lt;/div&gt;" style="edgeLabel;html=1;align=center;verticalAlign=middle;resizable=0;points=[];" parent="THQqdPNAuBJvjNnL2mm--6" vertex="1" connectable="0">
          <mxGeometry x="-0.0286" y="-1" relative="1" as="geometry">
            <mxPoint x="-9" y="-21" as="offset" />
          </mxGeometry>
        </mxCell>
        <mxCell id="lSG61P74-hLYV6zZgUSR-1" value="" style="curved=1;endArrow=classic;html=1;rounded=0;" edge="1" parent="1" source="THQqdPNAuBJvjNnL2mm--4" target="lSG61P74-hLYV6zZgUSR-3">
          <mxGeometry width="50" height="50" relative="1" as="geometry">
            <mxPoint x="188" y="247" as="sourcePoint" />
            <mxPoint x="270" y="330" as="targetPoint" />
            <Array as="points" />
          </mxGeometry>
        </mxCell>
        <mxCell id="lSG61P74-hLYV6zZgUSR-2" value="Search&lt;br&gt;Request" style="edgeLabel;html=1;align=center;verticalAlign=middle;resizable=0;points=[];" vertex="1" connectable="0" parent="lSG61P74-hLYV6zZgUSR-1">
          <mxGeometry x="-0.0286" y="-1" relative="1" as="geometry">
            <mxPoint x="-8" y="20" as="offset" />
          </mxGeometry>
        </mxCell>
        <mxCell id="lSG61P74-hLYV6zZgUSR-3" value="Get Request Search Stats" style="ellipse;whiteSpace=wrap;html=1;aspect=fixed;" vertex="1" parent="1">
          <mxGeometry x="240" y="270" width="80" height="80" as="geometry" />
        </mxCell>
        <mxCell id="sdNE9r2Ns8HYuBTam9L--1" value="Search Data Store" style="html=1;dashed=0;whiteSpace=wrap;shape=partialRectangle;right=0;left=0;" vertex="1" parent="1">
          <mxGeometry x="400" y="295" width="100" height="30" as="geometry" />
        </mxCell>
        <mxCell id="sdNE9r2Ns8HYuBTam9L--2" value="Metric Data Store" style="html=1;dashed=0;whiteSpace=wrap;shape=partialRectangle;right=0;left=0;" vertex="1" parent="1">
          <mxGeometry x="400" y="165" width="100" height="30" as="geometry" />
        </mxCell>
        <mxCell id="H2Bu11xDyJEST_dGZBC0-1" value="" style="curved=1;endArrow=classic;html=1;rounded=0;" edge="1" parent="1" source="sdNE9r2Ns8HYuBTam9L--2" target="THQqdPNAuBJvjNnL2mm--5">
          <mxGeometry width="50" height="50" relative="1" as="geometry">
            <mxPoint x="188" y="239" as="sourcePoint" />
            <mxPoint x="312" y="201" as="targetPoint" />
            <Array as="points" />
          </mxGeometry>
        </mxCell>
        <mxCell id="H2Bu11xDyJEST_dGZBC0-2" value="Metrics Data" style="edgeLabel;html=1;align=center;verticalAlign=middle;resizable=0;points=[];" vertex="1" connectable="0" parent="H2Bu11xDyJEST_dGZBC0-1">
          <mxGeometry x="-0.0286" y="-1" relative="1" as="geometry">
            <mxPoint x="-2" y="-14" as="offset" />
          </mxGeometry>
        </mxCell>
        <mxCell id="H2Bu11xDyJEST_dGZBC0-3" value="" style="curved=1;endArrow=classic;html=1;rounded=0;" edge="1" parent="1" source="sdNE9r2Ns8HYuBTam9L--1" target="lSG61P74-hLYV6zZgUSR-3">
          <mxGeometry width="50" height="50" relative="1" as="geometry">
            <mxPoint x="490" y="190" as="sourcePoint" />
            <mxPoint x="390" y="190" as="targetPoint" />
            <Array as="points" />
          </mxGeometry>
        </mxCell>
        <mxCell id="H2Bu11xDyJEST_dGZBC0-4" value="Search Data" style="edgeLabel;html=1;align=center;verticalAlign=middle;resizable=0;points=[];" vertex="1" connectable="0" parent="H2Bu11xDyJEST_dGZBC0-3">
          <mxGeometry x="-0.0286" y="-1" relative="1" as="geometry">
            <mxPoint x="-2" y="-14" as="offset" />
          </mxGeometry>
        </mxCell>
        <mxCell id="H2Bu11xDyJEST_dGZBC0-5" value="Format Data for Display" style="ellipse;whiteSpace=wrap;html=1;aspect=fixed;" vertex="1" parent="1">
          <mxGeometry x="520" y="200" width="80" height="80" as="geometry" />
        </mxCell>
        <mxCell id="H2Bu11xDyJEST_dGZBC0-6" value="" style="curved=1;endArrow=classic;html=1;rounded=0;" edge="1" parent="1" source="THQqdPNAuBJvjNnL2mm--5" target="H2Bu11xDyJEST_dGZBC0-5">
          <mxGeometry width="50" height="50" relative="1" as="geometry">
            <mxPoint x="410" y="190" as="sourcePoint" />
            <mxPoint x="330" y="190" as="targetPoint" />
            <Array as="points">
              <mxPoint x="390" y="240" />
            </Array>
          </mxGeometry>
        </mxCell>
        <mxCell id="H2Bu11xDyJEST_dGZBC0-11" value="Metrics Data" style="edgeLabel;html=1;align=center;verticalAlign=middle;resizable=0;points=[];" vertex="1" connectable="0" parent="H2Bu11xDyJEST_dGZBC0-6">
          <mxGeometry x="-0.5303" y="4" relative="1" as="geometry">
            <mxPoint x="59" as="offset" />
          </mxGeometry>
        </mxCell>
        <mxCell id="H2Bu11xDyJEST_dGZBC0-8" value="" style="curved=1;endArrow=classic;html=1;rounded=0;" edge="1" parent="1" source="lSG61P74-hLYV6zZgUSR-3" target="H2Bu11xDyJEST_dGZBC0-5">
          <mxGeometry width="50" height="50" relative="1" as="geometry">
            <mxPoint x="325" y="209" as="sourcePoint" />
            <mxPoint x="530" y="250" as="targetPoint" />
            <Array as="points">
              <mxPoint x="390" y="240" />
            </Array>
          </mxGeometry>
        </mxCell>
        <mxCell id="H2Bu11xDyJEST_dGZBC0-12" value="Search Data" style="edgeLabel;html=1;align=center;verticalAlign=middle;resizable=0;points=[];" vertex="1" connectable="0" parent="H2Bu11xDyJEST_dGZBC0-8">
          <mxGeometry x="-0.0371" y="-8" relative="1" as="geometry">
            <mxPoint x="19" y="12" as="offset" />
          </mxGeometry>
        </mxCell>
        <mxCell id="H2Bu11xDyJEST_dGZBC0-13" value="" style="curved=1;endArrow=classic;html=1;rounded=0;" edge="1" parent="1" source="H2Bu11xDyJEST_dGZBC0-5" target="THQqdPNAuBJvjNnL2mm--1">
          <mxGeometry width="50" height="50" relative="1" as="geometry">
            <mxPoint x="150" y="100" as="sourcePoint" />
            <mxPoint x="150" y="210" as="targetPoint" />
            <Array as="points">
              <mxPoint x="570" y="90" />
            </Array>
          </mxGeometry>
        </mxCell>
        <mxCell id="H2Bu11xDyJEST_dGZBC0-14" value="Formatted&lt;div&gt;Data&lt;/div&gt;" style="edgeLabel;html=1;align=center;verticalAlign=middle;resizable=0;points=[];" vertex="1" connectable="0" parent="H2Bu11xDyJEST_dGZBC0-13">
          <mxGeometry x="-0.0286" y="-1" relative="1" as="geometry">
            <mxPoint x="-7" y="-10" as="offset" />
          </mxGeometry>
        </mxCell>
      </root>
    </mxGraphModel>
  </diagram>
</mxfile>
